<?xml version="1.0" encoding="utf-8"?>
<!-- Generator: Adobe Illustrator 22.1.0, SVG Export Plug-In . SVG Version: 6.00 Build 0)  -->
<svg version="1.1" id="Layer_1" xmlns="http://www.w3.org/2000/svg" xmlns:xlink="http://www.w3.org/1999/xlink" x="0px" y="0px"
	 viewBox="0 0 30 30" style="enable-background:new 0 0 30 30;" xml:space="preserve">
<style type="text/css">
	.st0{fill:#FFFFFF;}
</style>
<g>
	<path class="st0" d="M21.9,0H8.1C3.6,0,0,3.6,0,8.1v13.8C0,26.4,3.6,30,8.1,30h13.8c4.5,0,8.1-3.6,8.1-8.1V8.1
		C30,3.6,26.4,0,21.9,0z M15,23.2c-4.5,0-8.2-3.7-8.2-8.2s3.7-8.2,8.2-8.2s8.2,3.7,8.2,8.2S19.5,23.2,15,23.2z M23.4,8.7
		c-1.3,0-2.4-1.1-2.4-2.4s1.1-2.4,2.4-2.4c1.3,0,2.4,1.1,2.4,2.4S24.7,8.7,23.4,8.7z"/>
	<path class="st0" d="M15,8.6c-3.6,0-6.4,2.9-6.4,6.4c0,3.6,2.9,6.4,6.4,6.4c3.6,0,6.4-2.9,6.4-6.4C21.4,11.4,18.6,8.6,15,8.6z"/>
	<path class="st0" d="M23.4,5.6c-0.4,0-0.7,0.3-0.7,0.7S23,7,23.4,7c0.4,0,0.7-0.3,0.7-0.7S23.8,5.6,23.4,5.6z"/>
</g>
</svg>
