<?xml version="1.0" encoding="utf-8"?>
<!-- Generator: Adobe Illustrator 22.1.0, SVG Export Plug-In . SVG Version: 6.00 Build 0)  -->
<svg version="1.1" id="Capa_1" xmlns="http://www.w3.org/2000/svg" xmlns:xlink="http://www.w3.org/1999/xlink" x="0px" y="0px"
	 viewBox="0 0 30 30" style="enable-background:new 0 0 30 30;" xml:space="preserve">
<style type="text/css">
	.st0{fill:#FFFFFF;}
</style>
<g>
	<g>
		<path class="st0" d="M15,0L15,0C6.7,0,0,6.7,0,15c0,3.3,1.1,6.3,2.9,8.8L1,29.4l5.8-1.8C9.1,29.1,12,30,15,30c8.3,0,15-6.7,15-15
			S23.3,0,15,0z M23.7,21.2c-0.4,1-1.8,1.9-2.9,2.1c-0.8,0.2-1.8,0.3-5.3-1.1c-4.4-1.8-7.2-6.3-7.5-6.6c-0.2-0.3-1.8-2.4-1.8-4.5
			s1.1-3.2,1.5-3.7c0.4-0.4,1-0.5,1.5-0.5c0.2,0,0.4,0,0.5,0c0.4,0,0.7,0,1,0.7c0.4,0.9,1.2,3,1.3,3.2c0.1,0.2,0.2,0.5,0.1,0.8
			c-0.1,0.3-0.3,0.4-0.5,0.7c-0.2,0.3-0.4,0.4-0.7,0.7c-0.2,0.2-0.4,0.5-0.2,0.9c0.3,0.4,1.1,1.9,2.4,3c1.7,1.5,3,2,3.5,2.2
			c0.4,0.1,0.8,0.1,1.1-0.2c0.3-0.4,0.8-1,1.2-1.6c0.3-0.4,0.7-0.5,1.1-0.3c0.4,0.1,2.5,1.2,3,1.4c0.4,0.2,0.7,0.3,0.8,0.5
			C24.1,19.3,24.1,20.2,23.7,21.2z"/>
	</g>
</g>
</svg>
