<?xml version="1.0" encoding="utf-8"?>
<!-- Generator: Adobe Illustrator 22.1.0, SVG Export Plug-In . SVG Version: 6.00 Build 0)  -->
<svg version="1.1" id="Layer_1" xmlns="http://www.w3.org/2000/svg" xmlns:xlink="http://www.w3.org/1999/xlink" x="0px" y="0px"
	 viewBox="0 0 29 29" style="enable-background:new 0 0 29 29;" xml:space="preserve">
<style type="text/css">
	.st0{clip-path:url(#SVGID_2_);}
	.st1{fill:url(#SVGID_3_);}
	.st2{fill:#FFFFFF;stroke:#FFFFFF;stroke-width:0.25;stroke-miterlimit:10;}
</style>
<g>
	<defs>
		<rect id="SVGID_1_" width="29" height="29"/>
	</defs>
	<clipPath id="SVGID_2_">
		<use xlink:href="#SVGID_1_"  style="overflow:visible;"/>
	</clipPath>
	<g class="st0">
		
			<linearGradient id="SVGID_3_" gradientUnits="userSpaceOnUse" x1="15.2071" y1="2.636" x2="15.2071" y2="12.636" gradientTransform="matrix(0.7071 -0.7071 0.7786 0.7786 -5.8409 14.1652)">
			<stop  offset="0" style="stop-color:#F72424"/>
			<stop  offset="1" style="stop-color:#BB1C00"/>
		</linearGradient>
		<polygon class="st1" points="32.1,-4.1 -2.6,30.6 -10.4,22.8 24.3,-11.9 		"/>
	</g>
	<g class="st0">
		<path class="st2" d="M6.7,18l-4.9-4.9l0.7-0.7l4.1,0.9C7.4,13.5,8.2,13.8,9,14l0,0c-0.7-0.6-1.3-1.2-2.1-1.9L4.8,10l0.6-0.6
			l4.9,4.9L9.7,15L5.7,14c-0.9-0.2-1.8-0.4-2.6-0.7l0,0c0.7,0.6,1.3,1.2,2.1,2l2.1,2.1L6.7,18z"/>
		<path class="st2" d="M10.1,11.2c0.9,0.9,1.8,0.7,2.4,0c0.5-0.5,0.7-0.8,0.8-1.2l0.6,0.4c-0.1,0.3-0.4,0.8-1,1.4
			c-1.1,1.1-2.4,1-3.5,0c-1.1-1.1-1.3-2.5-0.2-3.6c1.2-1.2,2.5-0.4,3.1,0.2c0.1,0.1,0.2,0.2,0.3,0.3L10.1,11.2z M11.6,8.9
			C11.2,8.5,10.4,8,9.6,8.8c-0.6,0.6-0.3,1.5,0.1,2L11.6,8.9z"/>
		<path class="st2" d="M11.8,5.8l2.3,1.3c0.5,0.3,1,0.6,1.4,0.9l0,0c-0.3-0.4-0.5-0.9-0.8-1.4l-1.2-2.4L14,3.6l2.3,1.2
			c0.6,0.3,1,0.6,1.5,0.8l0,0c-0.3-0.4-0.6-0.9-0.9-1.4L15.6,2l0.6-0.6L18.7,6l-0.6,0.6l-2.2-1.1c-0.5-0.3-1-0.5-1.5-0.8l0,0
			c0.3,0.5,0.6,1,0.8,1.5l1.1,2.2l-0.6,0.6l-4.6-2.5L11.8,5.8z"/>
	</g>
</g>
</svg>
