<svg width="20" height="21" xmlns="http://www.w3.org/2000/svg"><path d="M10 18.944c1.94 0 3.592-.718 4.953-2.154 1.362-1.436 2.042-3.165 2.042-5.189 0-2.023-.68-3.744-2.042-5.164-1.361-1.42-3.012-2.13-4.953-2.13-1.94 0-3.592.71-4.953 2.13-1.362 1.42-2.042 3.141-2.042 5.164 0 2.024.68 3.753 2.042 5.19 1.361 1.435 3.012 2.153 4.953 2.153zm0-16.741c2.504 0 4.632.922 6.385 2.766 1.753 1.843 2.63 4.054 2.63 6.632 0 2.579-.877 4.79-2.63 6.633C14.632 20.078 12.504 21 10 21s-4.632-.922-6.385-2.766C1.862 16.39.985 14.18.985 11.601c0-2.578.877-4.789 2.63-6.632C5.368 3.125 7.496 2.203 10 2.203zm.516 4.21v5.482l3.991 2.448-.751 1.272-4.742-2.937V6.413h1.502zM5.87 1.566L1.268 5.58 0 4.014 4.6 0 5.87 1.566zM20 4.014l-1.268 1.615-4.6-4.063L15.398 0 20 4.014z" fill="rgb(255,255,255)" fill-rule="evenodd"/></svg>