<svg xmlns="http://www.w3.org/2000/svg" width="25" height="25" viewBox="0 0 25 25"><path fill="rgb(255,255,255)" fill-rule="evenodd" d="M12.5 25C5.596 25 0 19.404 0 12.5S5.596 0 12.5 0 25 5.596 25 12.5 19.404 25 12.5 25zm5.09-13.203c-.09 0-.18-.032-.27-.095-.49-.19-.802-.49-.936-.9L15.18 5.203v-.237c0-.253.222-.46.668-.617l.067-.048h.067c.536-.158.804-.426.804-.806 0-.443-.09-.72-.268-.83-.18-.11-.49-.166-.938-.166H9.42c-.447 0-.76.055-.938.166-.178.11-.268.387-.268.83 0 .38.268.648.804.806h.067l.067.048c.446.158.67.364.67.617v.237L8.615 10.8c-.134.412-.446.712-.937.902-.09.063-.18.095-.27.095-1.606.57-2.41 1.44-2.41 2.61 0 .378.067.64.2.78.135.144.403.215.804.215h5.425l.802 8.348h.536l.803-8.348h5.426c.4 0 .67-.063.803-.19.133-.126.2-.395.2-.806 0-1.17-.804-2.04-2.41-2.61z"/></svg>