<?xml version="1.0" encoding="utf-8"?>
<!-- Generator: Adobe Illustrator 22.1.0, SVG Export Plug-In . SVG Version: 6.00 Build 0)  -->
<svg version="1.1" id="Layer_1" xmlns="http://www.w3.org/2000/svg" xmlns:xlink="http://www.w3.org/1999/xlink" x="0px" y="0px"
	 viewBox="0 0 30 30" style="enable-background:new 0 0 30 30;" xml:space="preserve">
<style type="text/css">
	.st0{opacity:0.5;fill:#FFFFFF;}
	.st1{fill:#FFFFFF;}
</style>
<g>
	<path class="st0" d="M10,28c-0.8,0-1.5-0.7-1.4-1.6c0,0,0,0,0,0L9.8,2.6c0-0.8,0.7-1.5,1.6-1.4L28.3,2c0.1,0,0.2,0,0.3,0.1
		c0.7,0.2,1.1,0.8,1.1,1.5l-1.2,23.8c0,0.8-0.7,1.5-1.6,1.4l-14.1-0.7c0,0-0.1,0-0.1,0L10,28z"/>
	<path class="st0" d="M9.3,28.3c-0.8,0-1.5-0.7-1.5-1.5c0,0,0,0,0,0L8,3c0-0.8,0.7-1.5,1.5-1.5l16.9,0.2c0.1,0,0.2,0,0.3,0
		c0.7,0.2,1.1,0.8,1.1,1.5L27.7,27c0,0.8-0.7,1.5-1.5,1.5l-14.1-0.1c0,0-0.1,0-0.1,0L9.3,28.3z"/>
	<path class="st0" d="M7.3,28.8c-0.8,0-1.5-0.6-1.6-1.4c0,0,0,0,0,0l-1-23.8C4.7,2.7,5.3,2,6.2,2l16.9-0.7c0.1,0,0.2,0,0.3,0
		c0.7,0.1,1.2,0.7,1.2,1.4l1,23.8c0,0.8-0.6,1.5-1.4,1.6l-14.1,0.6c0,0-0.1,0-0.1,0L7.3,28.8z"/>
	<path class="st1" d="M4.2,29.6c-0.8,0.1-1.6-0.5-1.7-1.4c0,0,0,0,0,0L0.3,3.7C0.2,2.9,0.8,2.1,1.7,2L19,0.4c0.1,0,0.2,0,0.4,0
		c0.7,0.1,1.3,0.7,1.3,1.4l2.2,24.4c0.1,0.8-0.5,1.6-1.4,1.7L7.1,29.3c0,0-0.1,0-0.1,0L4.2,29.6z"/>
	<path d="M16.5,12.7l-5.2-4.4c-0.2-0.1-0.4-0.1-0.5,0c0,0,0,0,0,0l-4.3,5.3c-1.3,1.6-1.1,4,0.5,5.3c0.5,0.4,1.2,0.7,1.9,0.8l0,0
		c0.3,0,0.6,0,0.9,0c0.6,0,1.1-0.2,1.6-0.5l-0.7,2c-0.1,0.2,0,0.4,0.2,0.5c0.1,0,0.2,0,0.3,0c0.7-0.4,1.6-0.4,2.3-0.2
		c0.2,0.1,0.4-0.1,0.5-0.3c0-0.1,0-0.2,0-0.3l-1-1.9c2,0.7,4.1-0.4,4.8-2.4C18.2,15.3,17.7,13.7,16.5,12.7z M12.8,20.7
		c-0.4,0-0.9,0-1.3,0.1l0.5-1.6L12.8,20.7z"/>
</g>
</svg>
