<svg id="Capa_1" data-name="Capa 1" xmlns="http://www.w3.org/2000/svg" viewBox="0 0 28.69 28.89"><defs><style>.cls-1{opacity:0.4;}.cls-2{fill:#fff;}</style></defs><title>casino-chip</title><g class="cls-1"><path class="cls-2" d="M28.49,8.51A12.45,12.45,0,0,0,19,.74,13,13,0,0,0,16.88.55,13,13,0,0,0,14.8.74,12.47,12.47,0,0,0,4.42,13,12.45,12.45,0,0,0,14.8,25.29a11.48,11.48,0,0,0,4.16,0,12.48,12.48,0,0,0,7.64-4.47,12.9,12.9,0,0,0,2-3.63,12.41,12.41,0,0,0-.13-8.68ZM27,9.35l-2.18,1.26a8.37,8.37,0,0,0-2.16-3.55l2.2-1.27A10.75,10.75,0,0,1,27,9.35ZM23.55,13a6.67,6.67,0,1,1-6.67-6.67A6.67,6.67,0,0,1,23.55,13ZM16.88,2.22a11,11,0,0,1,2.08.2V5A8.15,8.15,0,0,0,14.8,5V2.42A11,11,0,0,1,16.88,2.22Zm-8,3.57,2.2,1.27a8.33,8.33,0,0,0-2.17,3.55L6.74,9.35A10.75,10.75,0,0,1,8.88,5.79ZM6.61,16.34l2.21-1.28a8.28,8.28,0,0,0,2,3.65L8.63,20A10.77,10.77,0,0,1,6.61,16.34Zm10.27,7.48a10.26,10.26,0,0,1-2.08-.21V21.07a8.15,8.15,0,0,0,4.16,0v2.54A10.19,10.19,0,0,1,16.88,23.82ZM25.13,20l-2.19-1.26a8.28,8.28,0,0,0,2-3.65l2.21,1.28A10.44,10.44,0,0,1,25.13,20Z" transform="translate(-0.66 -0.55)"/><circle cx="16.23" cy="12.46" r="7.39"/><path class="cls-2" d="M17.54,12.2c-1.06-.4-1.49-.66-1.49-1.07s.26-.7,1.07-.7a3.6,3.6,0,0,1,1.15.18.65.65,0,0,0,.51-.06.66.66,0,0,0,.32-.41v0a.75.75,0,0,0-.54-.91A5.22,5.22,0,0,0,17.47,9V8.57a.63.63,0,0,0-.55-.63.62.62,0,0,0-.67.61v.57a2.31,2.31,0,0,0-2.11,2.22c0,1.21.91,1.84,2.24,2.28.93.32,1.32.61,1.32,1.09s-.48.77-1.19.77a4.21,4.21,0,0,1-1.41-.25.66.66,0,0,0-.53,0,.65.65,0,0,0-.32.42v0a.81.81,0,0,0,.56,1,5.84,5.84,0,0,0,1.38.24v.55a.61.61,0,0,0,.61.61h0a.61.61,0,0,0,.62-.61v-.64a2.39,2.39,0,0,0,2.21-2.31C19.62,13.41,19,12.73,17.54,12.2Z" transform="translate(-0.66 -0.55)"/></g><path class="cls-2" d="M24.73,12.47A12.42,12.42,0,0,0,15.2,4.71a11.48,11.48,0,0,0-4.16,0A12.38,12.38,0,0,0,3.64,8.9a12.53,12.53,0,0,0-2.13,3.57A12.3,12.3,0,0,0,.66,17a12.47,12.47,0,0,0,.72,4.17,12.77,12.77,0,0,0,2,3.63A12.49,12.49,0,0,0,11,29.26a13,13,0,0,0,2.08.19,13,13,0,0,0,2.08-.19,12.44,12.44,0,0,0,7.63-4.48A12.6,12.6,0,0,0,25.58,17,12.51,12.51,0,0,0,24.73,12.47Zm-1.47.85-2.17,1.25A8.36,8.36,0,0,0,18.92,11l2.2-1.27A10.65,10.65,0,0,1,23.26,13.32ZM19.78,17a6.67,6.67,0,1,1-6.66-6.66A6.67,6.67,0,0,1,19.78,17ZM13.12,6.18a10.26,10.26,0,0,1,2.08.21V8.93a8.15,8.15,0,0,0-4.16,0V6.39A10.19,10.19,0,0,1,13.12,6.18Zm-8,3.58L7.31,11a8.34,8.34,0,0,0-2.16,3.54L3,13.32A10.81,10.81,0,0,1,5.11,9.76ZM2.85,20.31,5.06,19a8.24,8.24,0,0,0,2,3.64L4.87,23.94A10.62,10.62,0,0,1,2.85,20.31Zm10.27,7.47a11,11,0,0,1-2.08-.2V25a8.15,8.15,0,0,0,4.16,0v2.54A11,11,0,0,1,13.12,27.78Zm8.25-3.84-2.19-1.27a8.24,8.24,0,0,0,2-3.64l2.21,1.28A11,11,0,0,1,21.37,23.94Z" transform="translate(-0.66 -0.55)"/><circle cx="12.46" cy="16.43" r="7.39"/><path class="cls-2" d="M13.78,16.17c-1.06-.4-1.5-.66-1.5-1.07s.26-.7,1.07-.7a3.94,3.94,0,0,1,1.15.17.72.72,0,0,0,.52-.05.67.67,0,0,0,.31-.41v0a.73.73,0,0,0-.53-.9A5.36,5.36,0,0,0,13.7,13v-.46a.61.61,0,1,0-1.22,0v.57a2.3,2.3,0,0,0-2.1,2.22c0,1.21.91,1.83,2.24,2.28.92.31,1.32.61,1.32,1.08s-.49.78-1.2.78a4.46,4.46,0,0,1-1.4-.25.65.65,0,0,0-.53,0,.7.7,0,0,0-.33.42v0a.82.82,0,0,0,.55,1,5.94,5.94,0,0,0,1.39.23v.56a.61.61,0,0,0,.61.61h0a.61.61,0,0,0,.61-.61V20.8a2.38,2.38,0,0,0,2.22-2.3C15.86,17.38,15.26,16.69,13.78,16.17Z" transform="translate(-0.66 -0.55)"/></svg>