<svg xmlns="http://www.w3.org/2000/svg" width="13" height="13" viewBox="0 0 13 13"><path fill="rgb(59,81,96)" fill-rule="evenodd" d="M3.115 11.902l.78-.78L1.88 9.103l-.782.78v.92h1.1V11.9h.917zM7.603 3.94c0-.113-.078-.19-.19-.19-.05 0-.102.017-.145.06l-4.65 4.65c-.044.044-.06.095-.06.147 0 .11.076.188.188.188.05 0 .103-.017.146-.06l4.65-4.65c.043-.043.06-.095.06-.146zM7.14 2.29l3.57 3.57L3.57 13H0V9.43l7.14-7.14zm5.86.825c0 .292-.12.575-.317.772l-1.425 1.425-3.57-3.57L9.113.326C9.31.12 9.593 0 9.885 0c.292 0 .575.12.78.326l2.018 2.008c.197.206.317.49.317.78z"/></svg>