<svg width="8" height="12" viewBox="0 0 8 12" xmlns="http://www.w3.org/2000/svg"><path d="M6.714 5.25c.857.321 1.286.812 1.286 1.473 0 .232-.036.384-.107.455-.071.071-.214.107-.429.107h-2.893l-.429 4.714h-.286l-.429-4.714h-2.893c-.214 0-.357-.04-.429-.121-.071-.08-.107-.228-.107-.442 0-.661.429-1.152 1.286-1.473l.143-.054c.262-.107.429-.277.5-.509l.643-3.161v-.134c0-.143-.119-.259-.357-.348l-.036-.027h-.036c-.286-.089-.429-.241-.429-.455 0-.25.048-.406.143-.469.095-.063.262-.094.5-.094h3.286c.238 0 .405.031.5.094.095.063.143.219.143.469 0 .214-.143.366-.429.455h-.036l-.036.027c-.238.089-.357.205-.357.348v.134l.643 3.161c.071.232.238.402.5.509l.143.054z" fill="rgb(255,255,255)"/></svg>