<?xml version="1.0" encoding="utf-8"?>
<!-- Generator: Adobe Illustrator 22.1.0, SVG Export Plug-In . SVG Version: 6.00 Build 0)  -->
<svg version="1.1" id="Layer_1" focusable="false" xmlns="http://www.w3.org/2000/svg" xmlns:xlink="http://www.w3.org/1999/xlink"
	 x="0px" y="0px" viewBox="0 0 14 8" style="enable-background:new 0 0 14 8;" xml:space="preserve">
<style type="text/css">
	.st0{fill:#F72A2A;}
</style>
<g>
	<path class="st0" d="M7.6,4.6c-0.3,0.3-0.8,0.3-1.1,0c-0.3-0.3-0.3-0.8,0-1.1s0.8-0.3,1.1,0C7.9,3.8,7.9,4.2,7.6,4.6L7.6,4.6z"/>
	<path class="st0" d="M9.2,6.5c1.3-1.4,1.3-3.6,0-5C9.1,1.4,9,1.4,8.9,1.5L8.5,1.9C8.4,2,8.4,2.1,8.4,2.2c0.9,1,0.9,2.6,0,3.6
		C8.4,5.9,8.4,6,8.5,6.1l0.4,0.4C9,6.6,9.1,6.6,9.2,6.5L9.2,6.5z"/>
	<path class="st0" d="M10.4,7.8c2-2.1,2-5.4,0-7.5c-0.1-0.1-0.2-0.1-0.3,0L9.7,0.7c-0.1,0.1-0.1,0.2,0,0.3c1.6,1.7,1.6,4.4,0,6.1
		c-0.1,0.1-0.1,0.2,0,0.3l0.4,0.4C10.2,7.8,10.3,7.8,10.4,7.8z"/>
	<path class="st0" d="M4.8,1.5c-1.3,1.4-1.3,3.6,0,5c0.1,0.1,0.2,0.1,0.3,0l0.4-0.4c0.1-0.1,0.1-0.2,0-0.3c-0.9-1-0.9-2.6,0-3.6
		c0.1-0.1,0.1-0.2,0-0.3L5.1,1.5C5,1.4,4.9,1.4,4.8,1.5L4.8,1.5z"/>
	<path class="st0" d="M3.6,0.2c-2,2.1-2,5.4,0,7.5c0.1,0.1,0.2,0.1,0.3,0l0.4-0.4c0.1-0.1,0.1-0.2,0-0.3c-1.6-1.7-1.6-4.4,0-6.1
		c0.1-0.1,0.1-0.2,0-0.3L3.9,0.2C3.8,0.2,3.7,0.2,3.6,0.2z"/>
</g>
</svg>
