<svg width="20" height="20" xmlns="http://www.w3.org/2000/svg" xmlns:xlink="http://www.w3.org/1999/xlink"><defs><path d="M0 4.004A3.997 3.997 0 0 1 3.998 0h27.004A3.999 3.999 0 0 1 35 4.004v23.992A3.997 3.997 0 0 1 31.002 32H3.998A3.999 3.999 0 0 1 0 27.996V4.004z" id="b"/><filter x="-2.9%" y="-3.1%" width="105.7%" height="106.3%" filterUnits="objectBoundingBox" id="a"><feOffset dy="2" in="SourceAlpha" result="shadowOffsetInner1"/><feComposite in="shadowOffsetInner1" in2="SourceAlpha" operator="arithmetic" k2="-1" k3="1" result="shadowInnerInner1"/><feColorMatrix values="0 0 0 0 1 0 0 0 0 1 0 0 0 0 1 0 0 0 0.5 0" in="shadowInnerInner1"/></filter></defs><g fill="none" fill-rule="evenodd"><g transform="translate(-8 -6)"><use fill="#000" filter="url(#a)" xlink:href="#b"/><path stroke="#BC8C17" d="M.5 4.004v23.992A3.499 3.499 0 0 0 3.998 31.5h27.004a3.497 3.497 0 0 0 3.498-3.504V4.004A3.499 3.499 0 0 0 31.002.5H3.998A3.497 3.497 0 0 0 .5 4.004z" stroke-linejoin="square"/></g><path d="M10.488 13c.621 0 1.203-.16 1.744-.478a3.608 3.608 0 0 0 1.29-1.278A3.32 3.32 0 0 0 14 9.512c0-.621-.16-1.203-.478-1.744a3.578 3.578 0 0 0-1.29-1.29A3.382 3.382 0 0 0 10.488 6a3.32 3.32 0 0 0-1.732.478c-.534.318-.96.748-1.278 1.29A3.382 3.382 0 0 0 7 9.512c0 .621.16 1.198.478 1.732.318.534.744.96 1.278 1.278a3.32 3.32 0 0 0 1.732.478zm7.187-2.014l2.147 1.634c.099.08.157.184.173.313a.555.555 0 0 1-.074.36l-2.073 3.462a.448.448 0 0 1-.26.216.56.56 0 0 1-.357-.024l-2.542-.985c-.658.464-1.242.793-1.752.985l-.37 2.62a.607.607 0 0 1-.185.313.453.453 0 0 1-.309.12H7.927a.485.485 0 0 1-.469-.433l-.395-2.62c-.69-.272-1.267-.6-1.727-.985l-2.567.985c-.263.112-.469.048-.617-.192L.079 13.293a.555.555 0 0 1-.074-.36.464.464 0 0 1 .173-.313l2.171-1.634A7.323 7.323 0 0 1 2.3 10c0-.433.017-.761.05-.986L.177 7.38a.464.464 0 0 1-.173-.313.555.555 0 0 1 .074-.36l2.073-3.462c.148-.24.354-.304.617-.192l2.567.985a8.02 8.02 0 0 1 1.727-.985l.395-2.62A.485.485 0 0 1 7.927 0h4.146c.115 0 .218.04.309.12.09.08.152.184.185.313l.37 2.62c.641.24 1.226.569 1.752.985l2.542-.985a.56.56 0 0 1 .358-.024.448.448 0 0 1 .259.216l2.073 3.462c.066.112.09.232.074.36a.464.464 0 0 1-.173.313l-2.147 1.634c.033.225.05.553.05.986 0 .433-.017.761-.05.986z" fill="rgb(255,184,12)"/></g></svg>