<svg xmlns="http://www.w3.org/2000/svg" width="17" height="17" viewBox="0 0 17 17"><path fill="rgb(255,255,255)" fill-rule="evenodd" d="M11.797 11.65c2.342.338 4.072 1.702 4.51 2.1C16.74 14.148 17 17 17 17H0s-.03-2.314.744-3.25c.437-.398 1.81-1.762 4.153-2.1 2.326-.322 1.616-2.774 1.696-2.743.08.045-.016-.522-.016-.522S4.88 6.837 4.897 5.442c.032-1.41 0-2.132 0-2.132S5.17 0 7.563 0l1.34.614c2.15 0 2.505 2.696 2.505 2.696v2.33S11.134 7.62 9.792 8.34c0 0-.096.57-.015.52.08-.03-.307 2.47 2.02 2.792z"/></svg>