<?xml version="1.0" encoding="utf-8"?>
<!-- Generator: Adobe Illustrator 22.1.0, SVG Export Plug-In . SVG Version: 6.00 Build 0)  -->
<svg version="1.1" id="Layer_1" xmlns="http://www.w3.org/2000/svg" xmlns:xlink="http://www.w3.org/1999/xlink" x="0px" y="0px"
	 viewBox="0 0 30 30" style="enable-background:new 0 0 30 30;" xml:space="preserve">
<style type="text/css">
	.st0{fill:#616161;}
</style>
<path class="st0" d="M15,0C6.7,0,0,6.7,0,15s6.7,15,15,15s15-6.7,15-15S23.3,0,15,0z M22.4,10.3l-2.5,11.6c-0.2,0.8-0.7,1-1.4,0.6
	l-3.7-2.8L13,21.5c-0.2,0.2-0.4,0.4-0.8,0.4l0.3-3.8l6.9-6.3c0.3-0.3-0.1-0.4-0.5-0.2L10.4,17l-3.7-1.2c-0.8-0.3-0.8-0.8,0.2-1.2
	l0,0L21.4,9C22,8.9,22.6,9.3,22.4,10.3L22.4,10.3z"/>
</svg>
