<svg xmlns="http://www.w3.org/2000/svg" width="25" height="25" viewBox="0 0 25 25"><path fill="#000000" fill-rule="nonzero" d="M11.327.048c.358 3.07 1.93 6.34 4.608 9.02 2.68 2.68 5.95 4.25 9.015 4.606-.26 2.8-1.46 5.53-3.605 7.674-2.148 2.143-4.87 3.347-7.676 3.607-.354-3.07-1.926-6.336-4.607-9.017-2.68-2.68-5.946-4.25-9.017-4.607.26-2.8 1.463-5.53 3.608-7.673C5.8 1.513 8.53.31 11.327.047zM25 12.123c-2.687-.346-5.57-1.77-7.96-4.16C14.65 5.57 13.223 2.684 12.877 0c3.076.095 6.126 1.308 8.47 3.655C23.693 6.002 24.91 9.048 25 12.123zM0 12.88c2.684.35 5.57 1.773 7.958 4.163 2.392 2.39 3.816 5.275 4.162 7.957-3.075-.09-6.12-1.308-8.466-3.652C1.308 19.002.09 15.955 0 12.88z"/></svg>