<svg xmlns="http://www.w3.org/2000/svg" width="25" height="25" viewBox="0 0 25 25"><path fill="rgb(255,184,12)" fill-rule="evenodd" d="M19.63 2.945c-.77-.574-1.602-1.052-2.492-1.43-.49-.205-.987-.378-1.495-.516-.4.162-.892.472-1.714 1.174-.687-.073-1.38-.076-2.076-.01-.91.086-1.822.288-2.715.604-.808.283-1.446.606-1.876.853-.626-.223-1.49-.496-1.937-.64-.44.333-.86.697-1.256 1.093-1.02 1.02-1.835 2.197-2.428 3.5-.074.785-.037 1.595.018 2.21-.294.738-.505 1.508-.628 2.3-.128.827-.18 2.328-.12 3.223.15.625.352 1.237.605 1.835.6 1.42 1.46 2.695 2.554 3.79.304.302.62.587.95.853-.013-.275-.096-1.328-.09-1.727l4.106-1.37 4.74 2.05c.367 1.485.56 2.295.583 2.43-.87.57-3.007.998-4 1.063.7.126 1.415.19 2.14.19 1.608 0 3.17-.315 4.64-.936.786-.333 1.528-.745 2.22-1.232-.878.453-1.912.55-2.89.71-.086.012-1.312.1-1.32.063l-.617-2.51 3.337-3.474 4.324-.394c.065.673.273 1.665.337 2.3.368-.57.686-1.174.953-1.805.62-1.47.937-3.03.937-4.64 0-1.14-.16-2.26-.474-3.338-.002.01-.002.016-.002.023-.26-.502-.564-.985-.908-1.444-.544-.727-1.19-1.396-1.923-1.992-.133-.664-.5-1.707-1.484-2.803zm1.707.715c1.147 1.15 2.048 2.484 2.68 3.976.652 1.54.983 3.18.983 4.865 0 1.69-.33 3.326-.982 4.867-.63 1.49-1.53 2.825-2.68 3.973-1.146 1.147-2.483 2.048-3.972 2.678-1.54.65-3.18.982-4.866.982-1.69 0-3.325-.33-4.866-.982-1.49-.63-2.826-1.53-3.973-2.678-1.147-1.148-2.048-2.484-2.678-3.973C.332 15.827 0 14.187 0 12.5c0-1.687.33-3.323.982-4.864.63-1.49 1.53-2.826 2.68-3.973C4.807 2.515 6.144 1.615 7.633.985 9.174.33 10.81.003 12.497 0c1.69 0 3.325.33 4.866.982 1.49.63 2.826 1.53 3.974 2.678zm-4.37 2.287l-2.138 5.835-5.13.985L5.463 8.39C5.748 6.403 7.11 4.644 7.11 4.644c.007-.005.894-.646 2.318-1.142.83-.292 1.675-.478 2.518-.557.688-.063 1.373-.052 2.05.03l2.97 2.97zM2.07 16.63c-.12-.445-.263-1.09-.334-1.865-.08-.875-.055-1.744.076-2.576.1-.64.26-1.26.48-1.855.865-.73 2.01-1.158 2.642-1.355l4.16 4.296-.436 4.708-3.915 1.283c-1.034-.76-2.03-1.695-2.674-2.638zm20.236-.87c-.015.026-.077.062-.092.094l-4.296.392-2.37-4.144 2.144-5.847 3.025.19c.643.54 1.213 1.138 1.696 1.784.604.81 1.074 1.7 1.395 2.643-.336 2.92-1.17 4.38-1.502 4.887z"/></svg>