<svg width="20" height="20" viewBox="0 0 20 20" xmlns="http://www.w3.org/2000/svg"><g fill="none"><path d="M20 18.624v-16.038c0-.748-.696-1.361-1.544-1.361h-.95c.051.135.068.269.085.404l1.578 15.978c.119 1.152-.848 2.169-2.154 2.274l-1.459.12h2.918c.831-.015 1.527-.628 1.527-1.376z" id="Path" fill="#CFBCC7"/><path d="M16.42 16.761l-3.062-15.642c-.148-.741-.922-1.231-1.745-1.097l-10.371 1.646c-.823.133-1.366.83-1.218 1.572l3.078 15.642c.148.741.922 1.231 1.745 1.097l10.371-1.646c.807-.133 1.35-.83 1.202-1.572zm-4.313-5.041c-.626.815-1.728 1.142-2.733.904.082.208.132.371.181.43.23.371 1.004.652.84.993-.165.326-.477-.03-1.333.104-.856.133-1.021.563-1.3.311-.28-.267.346-.771.412-1.186.016-.074.016-.237 0-.46-.856.534-2.025.563-2.914-.015-1.152-.726-1.432-2.165-.626-3.202.774-.993 2.864-3.455 2.864-3.455s2.897 1.661 4 2.357c1.136.741 1.416 2.179.609 3.217z" fill="#FFFFFF" fill-rule="nonzero"/><path d="M18.218 17.754l-1.483-16.091c-.064-.753-.781-1.311-1.579-1.25l-.973.075.08.271 2.966 15.895c.207 1.145-.606 2.245-1.818 2.441l-2.966.497 4.449-.362c.797-.045 1.387-.723 1.324-1.476z" fill="#CFBCC7"/></g></svg>